<svg id="visual" viewBox="0 0 960 540" width="960" height="540" xmlns="http://www.w3.org/2000/svg" xmlns:xlink="http://www.w3.org/1999/xlink" version="1.1"><rect x="0" y="0" width="960" height="540" fill="#bcbfde"></rect><g transform="translate(-45.94522202731693 471.6610676627591)"><path d="M146.4 -194.5C207.3 -188.6 286.5 -177.8 328.5 -135.5C370.5 -93.1 375.3 -19.2 348 37.7C320.7 94.7 261.2 134.8 211.5 172C161.8 209.3 121.7 243.8 69.1 279.4C16.4 315 -48.8 351.8 -95.6 334.1C-142.3 316.5 -170.5 244.4 -190.8 185.2C-211 126.1 -223.3 80 -241.7 27.7C-260.1 -24.5 -284.7 -82.9 -267.1 -122.2C-249.4 -161.5 -189.6 -181.7 -138 -191.9C-86.5 -202.1 -43.3 -202.3 -0.3 -201.9C42.7 -201.5 85.4 -200.4 146.4 -194.5" fill="#8aafbb"></path></g></svg>