<svg id="visual" viewBox="0 0 900 600" width="900" height="600" xmlns="http://www.w3.org/2000/svg" xmlns:xlink="http://www.w3.org/1999/xlink" version="1.1"><rect x="0" y="0" width="900" height="600" fill="#d3d8dd"></rect><defs><linearGradient id="grad1_0" x1="33.3%" y1="0%" x2="100%" y2="100%"><stop offset="20%" stop-color="#d3d8dd" stop-opacity="1"></stop><stop offset="80%" stop-color="#d3d8dd" stop-opacity="1"></stop></linearGradient></defs><defs><linearGradient id="grad2_0" x1="0%" y1="0%" x2="66.7%" y2="100%"><stop offset="20%" stop-color="#d3d8dd" stop-opacity="1"></stop><stop offset="80%" stop-color="#d3d8dd" stop-opacity="1"></stop></linearGradient></defs><g transform="translate(900, 0)"><path d="M0 216.3C-26.9 207.4 -53.7 198.5 -77.3 186.6C-100.9 174.7 -121.2 159.8 -142.8 142.8C-164.5 125.9 -187.4 106.9 -199.9 82.8C-212.3 58.6 -214.3 29.3 -216.3 0L0 0Z" fill="#4b9b9d"></path></g><g transform="translate(0, 600)"><path d="M0 -216.3C28.4 -212.5 56.8 -208.6 81.9 -197.7C107 -186.8 128.7 -168.9 149.2 -149.2C169.7 -129.5 188.9 -108 199.9 -82.8C210.8 -57.6 213.6 -28.8 216.3 0L0 0Z" fill="#4b9b9d"></path></g></svg>